. 
  
http://www.torrenting.com/        :     Greatest Movie Tracker on The Net!!!
 
http://www.Torrenting.com          :     Once & For all ;)


               www . Torrenting . Com 

(((((((((((((= Enjoy No RAR releases =))))))))))))))))))))


...................................NFO:....................................

.  
[pre]ooooo ooo        ooooo       .o.         .oooooo.     o8o  ooooo      ooo oooooooooooo 
      888' `88.       .888'      .888.       d8P'  `Y8b    `"'  `888b.     `8' `888'     `8 
      888   888b     d'888      .8"888.     888           oooo   8 `88b.    8   888         
      888   8 Y88. .P  888     .8' `888.    888           `888   8   `88b.  8   888oooo8    
      888   8  `888'   888    .88ooo8888.   888     ooooo  888   8     `88b.8   888    "    
      888   8    Y     888   .8'     `888.  `88.    .88'   888   8       `888   888       o 
     o888o o8o        o888o o88o     o8888o  `Y8bood8P'   o888o o8o        `8  o888ooooood8  
                                                



                  Another Fine Release Brought to you from - IMAGiNE                   
                                                 

******************************************************************************************                              
                      The River Murders DVDSCR 2011 XViD - IMAGiNE                                                               
******************************************************************************************

Ripper ...........: IMAGiNE              IMDB Rating.......: 7.7/10                             
Video Codec.......: XViD                 Release Date......: 06/09/11
Audio Codec.......: AC-3                 Theatre Date......: n/a
Audio Bitrate.....: 192                  Runtime...........: 1h 32mn
Subtitles.........: NIL                  Language..........: ENGLISH
Resolution........: 720 x 400            IMDb URL..........: http://www.imdb.com/title/tt1738387/


[color=yellow]DETAILS:[/color]

Video
ID                               : 0
Format                           : MPEG-4 Visual
Format profile                   : Advanced Simple@L5
Format settings, BVOP            : 2
Format settings, QPel            : No
Format settings, GMC             : No warppoints
Format settings, Matrix          : Default (H.263)
Muxing mode                      : Packed bitstream
Codec ID                         : XVID
Codec ID/Hint                    : XviD
Duration                         : 1h 32mn
Bit rate                         : 1 915 Kbps
Width                            : 720 pixels
Height                           : 400 pixels
Display aspect ratio             : 16:9
Frame rate                       : 29.970 fps
Color space                      : YUV
Chroma subsampling               : 4:2:0
Bit depth                        : 8 bits
Scan type                        : Progressive
Compression mode                 : Lossy
Bits/(Pixel*Frame)               : 0.222
Stream size                      : 1.24 GiB (90%)
Writing library                  : XviD 64

Audio
ID                               : 1
Format                           : AC-3
Format/Info                      : Audio Coding 3
Mode extension                   : CM (complete main)
Codec ID                         : 2000
Duration                         : 1h 32mn
Bit rate mode                    : Constant
Bit rate                         : 192 Kbps
Channel(s)                       : 2 channels
Channel positions                : Front: L R
Sampling rate                    : 48.0 KHz
Bit depth                        : 16 bits
Compression mode                 : Lossy
Stream size                      : 127 MiB (9%)
Alignment                        : Aligned on interleaves
Interleave, duration             : 33 ms (1.00 video frame)
Interleave, preload duration     : 512 ms




[color=yellow]SOURCES:[/color]

VIDEO: ............VOBS Thanks Mate :D
AUDIO: ............VOBS Thanks Mate :D

[color=yellow]NOTES:[/color]
IMAGiNE bringing you another release.......... 
The River Murders DVDSCR 2011 
ok we encode this few weeks ago and no one let it go sorry for being late 
we being busy but lot new thinks in the works. ok on to the encode made
a script to sharpen resize now on to the audio we remuxed the ac3 back to our
encode.

Enjoy Folks!
       


[color=yellow]SCREENS:[/color]

[IMG]http://i.imgur.com/H4zxt.png[/IMG]
[IMG]http://i.imgur.com/hlsHJ.png[/IMG]
[IMG]http://i.imgur.com/hpr6I.png[/IMG]
[IMG]http://i.imgur.com/RGqRj.png[/IMG]
[IMG]http://i.imgur.com/0HOk1.png[/IMG]
[IMG]http://i.imgur.com/bGxi7.png[/IMG]
[IMG]http://i.imgur.com/GsnTj.png[/IMG]


[color=yellow]GREETS:[/color]

FLAWL3SS,KINOPARK,Rx,ELEKTRI4KA,ADDiCTED,Autotron,CiNEDUB,
And to all the other p2p grps past and present 

[COLOR=RED]Looking for these,syncers,cammers,audio,silver supplier.....Have anything to offer????......
Contact us imaginegroup@hushmail.com[/COLOR][/pre]